<svg width="129" height="67" viewBox="0 0 129 67" fill="none" xmlns="http://www.w3.org/2000/svg">
<path d="M26.7237 47.1984C25.8227 47.8694 24.8536 48.4501 23.8147 48.9423C22.7757 49.4345 21.6385 49.8069 20.4031 50.0613C19.1658 50.3139 17.8001 50.4411 16.304 50.4411C13.9522 50.4411 11.7855 50.0226 9.80015 49.1894C7.81481 48.3561 6.0977 47.215 4.64884 45.7716C3.19808 44.3263 2.06279 42.6211 1.2373 40.6542C0.413692 38.6872 0 36.5728 0 34.3072C0 32.0416 0.404247 29.9714 1.21274 28.0044C2.02123 26.0375 3.15841 24.3176 4.62428 22.8428C6.09015 21.3662 7.82992 20.2048 9.84549 19.3568C11.8611 18.507 14.0882 18.083 16.5326 18.083C17.9984 18.083 19.3321 18.2028 20.5391 18.4406C21.7462 18.6803 22.8513 19.0158 23.8581 19.4453C24.865 19.8785 25.7981 20.391 26.652 20.9864C27.5058 21.5819 28.3162 22.2381 29.0793 22.9534L25.46 27.0219C24.1774 25.8587 22.8173 24.9204 21.3835 24.2051C19.9479 23.4898 18.3139 23.1322 16.4816 23.1322C14.9552 23.1322 13.5423 23.4216 12.2464 24.0042C10.9468 24.5849 9.8266 25.3738 8.88021 26.373C7.93382 27.3721 7.20088 28.5409 6.68141 29.8811C6.16193 31.2213 5.90125 32.6684 5.90125 34.2169C5.90125 35.7654 6.16193 37.218 6.68141 38.5748C7.20088 39.9316 7.93382 41.1151 8.88021 42.129C9.8266 43.1428 10.9468 43.9392 12.2464 44.5199C13.5442 45.1006 14.9552 45.3919 16.4816 45.3919C18.4348 45.3919 20.1141 45.0269 21.5195 44.2968C22.9231 43.5668 24.3134 42.5769 25.6886 41.3252L29.3079 44.8997C28.4843 45.7642 27.621 46.5311 26.72 47.2021H26.7237V47.1984Z" fill="#0E1424"/>
<path d="M92.8841 47.1984C91.9831 47.8694 91.014 48.4501 89.9751 48.9423C88.9361 49.4345 87.7989 49.8069 86.5635 50.0613C85.3262 50.3139 83.9605 50.4411 82.4644 50.4411C80.1126 50.4411 77.9459 50.0226 75.9606 49.1894C73.9752 48.3561 72.2581 47.215 70.8092 45.7716C69.3585 44.3263 68.2213 42.6211 67.3977 40.6542C66.5741 38.6872 66.1604 36.5728 66.1604 34.3072C66.1604 32.0416 66.5646 29.9714 67.3731 28.0044C68.1816 26.0375 69.3188 24.3176 70.7847 22.8428C72.2506 21.3662 73.9903 20.2048 76.0059 19.3568C78.0215 18.507 80.2486 18.083 82.693 18.083C84.1588 18.083 85.4925 18.2028 86.7014 18.4406C87.9085 18.6803 89.0136 19.0158 90.0204 19.4453C91.0272 19.8785 91.9604 20.391 92.8142 20.9864C93.6681 21.5819 94.4785 22.2381 95.2416 22.9534L91.6223 27.0219C90.3396 25.8587 88.9796 24.9204 87.5458 24.2051C86.1102 23.4898 84.4762 23.1322 82.6438 23.1322C81.1175 23.1322 79.7046 23.4216 78.4087 24.0042C77.1091 24.5849 75.9889 25.3738 75.0425 26.373C74.0961 27.3721 73.3632 28.5409 72.8437 29.8811C72.3242 31.2213 72.0635 32.6684 72.0635 34.2169C72.0635 35.7654 72.3223 37.218 72.8437 38.5748C73.3632 39.9316 74.0942 41.1151 75.0425 42.129C75.9889 43.1428 77.111 43.9392 78.4087 44.5199C79.7064 45.1006 81.1175 45.3919 82.6438 45.3919C84.5971 45.3919 86.2764 45.0269 87.6818 44.2968C89.0853 43.5668 90.4757 42.5769 91.8509 41.3252L95.4702 44.8997C94.6466 45.7642 93.7814 46.5311 92.8822 47.2021L92.8841 47.1984Z" fill="#0E1424"/>
<path d="M127.759 40.4711C126.935 42.438 125.774 44.158 124.279 45.6346C122.783 47.1093 121.011 48.2781 118.968 49.1427C116.922 50.0072 114.663 50.4405 112.19 50.4405C109.717 50.4405 107.456 50.0146 105.412 49.1666C103.366 48.3168 101.61 47.1628 100.146 45.7028C98.6797 44.2428 97.5331 42.5284 96.7095 40.5614C95.8859 38.5945 95.4722 36.5095 95.4722 34.3048C95.4722 32.1 95.884 30.0132 96.7095 28.0481C97.5331 26.0811 98.6929 24.3612 100.191 22.8864C101.687 21.4117 103.457 20.2429 105.503 19.3784C107.549 18.5138 109.808 18.0806 112.281 18.0806C114.753 18.0806 117.012 18.5064 119.058 19.3544C121.104 20.2042 122.861 21.3582 124.327 22.8182C125.793 24.2782 126.937 25.9926 127.763 27.9578C128.588 29.9247 129 32.0097 129 34.2144C129 36.4192 128.588 38.5041 127.763 40.4711H127.759ZM122.287 29.9892C121.752 28.6325 121.004 27.449 120.042 26.4351C119.079 25.423 117.927 24.6174 116.584 24.022C115.241 23.4266 113.775 23.1279 112.188 23.1279C110.601 23.1279 109.143 23.4173 107.813 23.9999C106.483 24.5806 105.348 25.3696 104.401 26.3687C103.455 27.3679 102.715 28.544 102.18 29.9008C101.645 31.2575 101.379 32.6936 101.379 34.2126C101.379 35.7316 101.645 37.1695 102.18 38.5244C102.715 39.8812 103.463 41.0647 104.424 42.0786C105.388 43.0925 106.538 43.8962 107.883 44.4916C109.226 45.0871 110.692 45.3857 112.279 45.3857C113.865 45.3857 115.324 45.0963 116.654 44.5138C117.983 43.9331 119.119 43.1441 120.065 42.1449C121.011 41.1458 121.752 39.9697 122.287 38.6129C122.821 37.2561 123.088 35.8201 123.088 34.3011C123.088 32.7821 122.821 31.3442 122.287 29.9892Z" fill="#0E1424"/>
<path d="M41.4598 31.3871C41.2029 31.118 40.776 31.0995 40.5002 31.3447L37.7725 33.7947C37.5005 34.0454 37.4816 34.462 37.7366 34.7311L38.7945 35.8593L38.802 35.8667L38.8096 35.8593L40.8667 34.014L42.7689 36.0271L43.9344 34.9837C44.2065 34.7367 44.2253 34.3163 43.9741 34.0509L41.4598 31.3853V31.3871Z" fill="#00F872"/>
<path d="M51.0372 31.7709C50.784 31.5017 50.3571 31.487 50.0813 31.7321L47.3536 34.1821C47.0778 34.4291 47.0589 34.8494 47.3101 35.1149L48.385 36.2523L50.4459 34.4033L52.3481 36.4219L53.5136 35.373C53.7894 35.1259 53.8045 34.7056 53.5571 34.4402L51.0372 31.7709Z" fill="#00F872"/>
<path d="M62.0274 30.5522L61.8159 30.543C61.6232 29.7392 61.372 28.9576 61.0622 28.2036C60.5786 27.0312 59.9609 25.9288 59.226 24.9131C58.3854 23.7443 57.3862 22.6917 56.2622 21.7718C55.2232 20.9257 54.0766 20.2049 52.845 19.6242C57.3238 22.0152 60.3632 26.6551 60.3632 31.9882C60.3632 38.7777 55.4386 44.4444 48.8875 45.7754C47.858 46.0519 46.7681 46.1994 45.6479 46.1994C43.4831 46.1994 41.4467 45.6482 39.6805 44.6822C34.8466 42.4056 31.5106 37.5776 31.5106 31.9901C31.5106 25.385 36.1708 19.8436 42.4555 18.3228C40.1906 18.756 38.09 19.6371 36.2558 20.8704C35.0449 21.6889 33.9474 22.6493 33.001 23.7425C32.814 23.9526 32.6421 24.1665 32.4721 24.3822C31.5635 25.538 30.806 26.8247 30.2412 28.2055C30.2053 28.2847 30.1675 28.3677 30.1373 28.4525C30.1203 28.4912 30.1052 28.5318 30.0919 28.5705C29.9786 28.8617 29.8785 29.1604 29.7821 29.4609L29.5706 29.4517C28.4296 29.4129 27.4738 30.2849 27.4341 31.3983L27.2754 35.8245C27.2358 36.9379 28.1293 37.8707 29.2702 37.9094L29.478 37.9186C29.6405 38.5915 29.8445 39.2514 30.0919 39.8929C30.1222 39.9777 30.1581 40.0662 30.1977 40.151C30.7625 41.5668 31.5314 42.8885 32.474 44.0794C33.2617 45.0841 34.1722 45.9929 35.1809 46.7874C35.2791 46.8667 35.3812 46.9441 35.4851 47.0252C35.6211 47.1266 35.7533 47.2243 35.895 47.322C36.0329 47.4234 36.1745 47.5174 36.3162 47.6151C36.371 47.6539 36.4239 47.6889 36.4787 47.7202C36.5127 47.7423 36.5448 47.7645 36.5826 47.7866C36.7205 47.8732 36.8584 47.9636 37.0019 48.0465C37.1001 48.1055 37.2003 48.1627 37.2966 48.2235C37.4005 48.2825 37.5063 48.3378 37.6083 48.3968C37.6914 48.4392 37.7707 48.4816 37.852 48.5295C38.1051 48.6622 38.3582 48.7876 38.617 48.9074C38.6491 48.9222 38.6775 48.9351 38.7039 48.9461C39.0496 49.1047 39.3991 49.2466 39.7542 49.3793C39.8732 49.4217 39.996 49.4697 40.1131 49.5065C40.2321 49.5489 40.3549 49.5913 40.4758 49.63C40.7176 49.7056 40.965 49.7812 41.2144 49.8494C41.3372 49.8807 41.4656 49.9158 41.5922 49.9453C41.8491 50.0116 42.1041 50.0706 42.3629 50.1204C42.616 50.1646 42.8673 50.2126 43.1242 50.2513C43.2319 50.2679 43.3339 50.2826 43.4415 50.2955C43.536 50.3103 43.6304 50.3232 43.7287 50.3287C43.7608 50.3324 43.7891 50.3379 43.8212 50.3416C43.9346 50.3564 44.0536 50.3693 44.1688 50.3748C44.3388 50.3914 44.5088 50.4024 44.6788 50.4098C44.8281 50.419 44.983 50.4246 45.136 50.4282C45.2531 50.4319 45.3759 50.4375 45.4987 50.4375C45.5515 50.4375 45.6044 50.4412 45.6592 50.4412C45.9275 50.4412 46.1919 50.4319 46.4564 50.4246C46.4753 50.4246 46.4979 50.4246 46.5112 50.4246H46.5433C46.6377 50.4209 46.736 50.4117 46.8323 50.4043C46.8663 50.4043 46.9079 50.4006 46.94 50.3969C46.9759 50.3932 47.0155 50.3877 47.0552 50.3877C47.0628 50.384 47.0741 50.384 47.0873 50.384C47.2139 50.3729 47.3404 50.3619 47.467 50.3453C47.5747 50.3324 47.688 50.3176 47.7938 50.3103C47.8032 50.3066 47.807 50.3066 47.8127 50.3066C47.8354 50.3029 47.858 50.2974 47.8845 50.2974C47.9128 50.2974 47.9355 50.29 47.9619 50.2863C48.1716 50.255 48.3851 50.2236 48.5947 50.1849C48.7307 50.1628 48.8668 50.1351 49.0009 50.1093C49.1369 50.0817 49.2691 50.0559 49.4032 50.0245C49.6715 49.9637 49.9378 49.8973 50.2004 49.8254C50.4422 49.7554 50.6802 49.689 50.922 49.6061C51.0089 49.5784 51.0901 49.5471 51.1751 49.5231C51.33 49.4697 51.4792 49.4162 51.6304 49.3572C51.9779 49.2245 52.3199 49.0881 52.6561 48.9295C52.7694 48.8761 52.8809 48.8244 52.9886 48.7728C53.2965 48.6217 53.5987 48.4631 53.8915 48.2972C54.0502 48.2106 54.2032 48.1221 54.3543 48.0281C54.632 47.8603 54.9078 47.6834 55.176 47.4972C55.295 47.4179 55.4084 47.3349 55.5255 47.2501C58.0076 45.4602 59.9665 43.0047 61.1151 40.1566C61.2662 39.7786 61.4022 39.3952 61.5269 39.0081L61.7384 39.0155C62.8813 39.056 63.8352 38.1822 63.8768 37.0706L64.0336 32.6445C64.0751 31.5292 63.1797 30.5983 62.0407 30.5596H62.0331L62.0274 30.5522Z" fill="url(#paint0_linear_8128_1583)"/>
<path d="M60.3629 31.9912C60.3629 38.7806 55.4383 44.4474 48.8873 45.7784C52.0532 44.9304 54.7129 42.8749 56.3054 40.1522C57.2895 38.4746 57.8638 36.5464 57.9091 34.4891C57.9091 34.4043 57.9091 34.3176 57.9091 34.2347C57.9091 32.0373 57.3028 29.9782 56.2393 28.2066C56.1543 28.0628 56.0674 27.9209 55.9729 27.7808C55.1757 26.5696 54.1576 25.5041 52.9769 24.6414C50.9312 23.1445 48.3923 22.2615 45.6457 22.2615C43.3034 22.2615 41.1102 22.903 39.2477 24.022C37.9877 24.7759 36.8751 25.7474 35.974 26.883C35.634 27.3052 35.3299 27.7421 35.0541 28.2066C34.9823 28.3301 34.9105 28.4481 34.8444 28.5716C34.0378 30.0224 33.5334 31.6539 33.4125 33.3885C33.3936 33.6687 33.3804 33.9489 33.3804 34.2365C33.3804 36.2809 33.9093 38.2128 34.8444 39.8941C34.8897 39.9807 34.9426 40.0674 34.9936 40.1522C36.0987 42.0454 37.7232 43.6197 39.6746 44.687C34.8406 42.4104 31.5046 37.5824 31.5046 31.9949C31.5046 25.3898 36.1648 19.8484 42.4495 18.3276C42.4495 18.3276 42.4495 18.3276 42.4533 18.3276C42.986 18.1967 43.53 18.099 44.0816 18.0289L44.943 16.3919L45.4512 15.4297L45.47 15.3891L45.4889 15.3504C44.1836 15.3578 42.901 15.496 41.6637 15.7523C41.5976 15.767 41.5277 15.7836 41.4654 15.7947C40.6833 15.968 39.9183 16.1873 39.1759 16.4491L39.2193 16.3956L39.2326 16.3809L40.3433 15.013L42.3419 12.5594L43.7114 10.8745L43.7624 10.8137L50.1264 2.97901L52.5463 0L51.3127 3.39195L49.5465 8.231L48.5491 10.9667H48.5529L48.3848 11.4404C48.6379 11.4128 48.8929 11.3962 49.1555 11.3815C49.8261 11.3483 50.5042 11.3593 51.1956 11.4239L51.3656 11.4404C51.9361 11.5013 52.4971 11.5953 53.0468 11.7133L52.9694 11.9068L52.9335 11.9916L52.9751 11.9068L52.3592 13.4092L51.2447 16.121L51.2334 16.1486L51.2051 16.2187L51.1956 16.2371L50.8367 17.1054L50.2436 18.5525C51.1522 18.8308 52.0249 19.194 52.8485 19.6309C57.3273 22.0218 60.3667 26.6618 60.3667 31.9949H60.3629V31.9912Z" fill="url(#paint1_linear_8128_1583)"/>
<path d="M8.12466 58.0044L4.21631 66.4013H5.20615L6.22432 64.1984L10.8807 64.2058L11.8781 66.4142H12.9152L9.03138 58.0062H8.12655L8.12466 58.0044ZM6.60212 63.3541L8.56291 59.1012L10.4991 63.3596L6.60212 63.3541Z" fill="#0E1424"/>
<path d="M17.1355 58.08L17.1221 66.4253L18.0855 66.4268L18.0989 58.0815L17.1355 58.08Z" fill="#0E1424"/>
<path d="M35.793 62.4799L34.9977 62.1222C34.6917 62.8117 34.3479 63.444 33.9701 63.9804L32.0188 62.0338C33.2655 61.6061 34.0362 60.9406 34.0381 59.8548C34.0381 58.7948 33.1616 57.9579 31.964 57.9561C30.6077 57.9561 29.7028 58.8354 29.701 59.9433C29.701 60.6106 29.9673 61.1231 30.5548 61.7904C29.2457 62.29 28.4882 63.0882 28.4863 64.209C28.4863 65.6156 29.6311 66.5594 31.1687 66.5613C32.2813 66.5613 33.1843 66.0893 33.9682 65.2672L35.3094 66.6166L36.0423 66.0691L34.5557 64.5759C35.0204 63.9823 35.4133 63.2652 35.793 62.4799ZM31.9243 58.7321C32.6214 58.7321 33.1333 59.2243 33.1314 59.9027C33.1314 60.6401 32.5666 61.1415 31.4785 61.4973C30.8325 60.8171 30.6247 60.4466 30.6266 59.947C30.6266 59.2557 31.1555 58.7321 31.9243 58.734V58.7321ZM31.2424 65.7631C30.1902 65.7631 29.4592 65.081 29.4611 64.174C29.4611 63.4606 29.9654 62.7804 31.1007 62.3766L33.3807 64.6828C32.7555 65.3501 32.0471 65.7649 31.2405 65.7631H31.2424Z" fill="#0E1424"/>
<path d="M47.1588 62.6892L51.8246 62.6965L51.8265 61.8375L47.1606 61.8301L47.1644 58.9783L52.38 58.9875L52.3819 58.1303L46.201 58.1211L46.1897 66.4645L52.4291 66.4738L52.431 65.6166L47.155 65.6073L47.1588 62.6892Z" fill="#0E1424"/>
<path d="M56.4054 62.4168L56.4038 63.3828L59.8002 63.388L59.8018 62.4221L56.4054 62.4168Z" fill="#0E1424"/>
<path d="M70.1445 61.8642L65.2104 61.855L65.2161 58.1478L64.2508 58.146L64.2375 66.4913H65.2009L65.2085 62.7362L70.1445 62.7454L70.1369 66.5005H71.1022L71.1173 58.1571L70.1501 58.1552L70.1445 61.8642Z" fill="#0E1424"/>
<path d="M76.9316 62.7336L81.5975 62.7391L81.5994 61.8801L76.9335 61.8727L76.9373 59.0246L82.1528 59.032L82.1547 58.1729L75.9739 58.1655L75.9607 66.5108L82.202 66.52L82.2038 65.6592L76.9279 65.6536L76.9316 62.7336Z" fill="#0E1424"/>
<path d="M89.7616 58.127L85.8533 66.5239H86.8431L87.8613 64.3209L92.5177 64.3283L93.5151 66.5368H94.5521L90.6683 58.1288H89.7635L89.7616 58.127ZM88.2391 63.4766L90.1999 59.2238L92.1361 63.4822L88.2391 63.4766Z" fill="#0E1424"/>
<path d="M99.6548 58.2002H98.6895L98.6763 66.5436L104.455 66.551V65.6828L99.6415 65.6754L99.6548 58.2002Z" fill="#0E1424"/>
<path d="M106.857 59.0801L109.727 59.0838L109.717 66.5589H110.694L110.705 59.0856L113.575 59.0911L113.577 58.2192L106.857 58.21V59.0801Z" fill="#0E1424"/>
<path d="M123.726 58.2349L123.721 61.9421L118.787 61.9347L118.792 58.2294L117.827 58.2275L117.814 66.571L118.779 66.5728L118.785 62.8177L123.721 62.8233L123.713 66.5802H124.678L124.693 58.2368L123.726 58.2349Z" fill="#0E1424"/>
<defs>
<linearGradient id="paint0_linear_8128_1583" x1="27.2717" y1="34.3792" x2="64.0298" y2="34.3792" gradientUnits="userSpaceOnUse">
<stop stop-color="#B8F7D6"/>
<stop offset="0.35" stop-color="#00F781"/>
<stop offset="1" stop-color="#0E6724"/>
</linearGradient>
<linearGradient id="paint1_linear_8128_1583" x1="60.3667" y1="22.8883" x2="31.5046" y2="22.8883" gradientUnits="userSpaceOnUse">
<stop stop-color="#B8F7D6"/>
<stop offset="0.45" stop-color="#00F781"/>
<stop offset="1" stop-color="#0D702B"/>
</linearGradient>
</defs>
</svg>
